<svg width="208" height="50" viewBox="0 0 208 50" fill="none" xmlns="http://www.w3.org/2000/svg">
<path d="M0 0H12.395C19.3565 0 25 5.64347 25 12.605V25H0V0Z" fill="#041231"/>
<path d="M25 0H50V12.5C50 19.4036 44.4036 25 37.5 25C30.5964 25 25 19.4036 25 12.5V0Z" fill="#041231"/>
<path d="M0 37.605C0 30.6435 5.64347 25 12.605 25H25V50H0V37.605Z" fill="#041231"/>
<path d="M25 25H50V50H37.605C30.6435 50 25 44.3565 25 37.395V25Z" fill="#041231"/>
<path d="M84.2344 12.0469H90.1406V29.6602C90.1406 34.6172 86.4316 37.8516 81.0703 37.8516C76.3594 37.8516 72.5625 35.4258 72.5977 30.0117H78.5742C78.627 31.998 79.6992 33.1055 81.4219 33.1055C83.2324 33.1055 84.2168 31.9277 84.2344 29.6602V12.0469ZM102.867 37.8516C96.8906 37.8516 93.2344 34.125 93.2344 28.043C93.2344 22.1191 96.9258 18.1641 102.656 18.1641C108.018 18.1641 111.867 21.5742 111.867 27.9023V29.4141H99.0703V29.5195C99.0879 31.9629 100.564 33.5625 102.973 33.5625C104.59 33.5625 105.803 32.8594 106.277 31.7344H111.797C111.076 35.4609 107.807 37.8516 102.867 37.8516ZM99.0703 25.9336H106.348C106.312 23.8945 104.836 22.4531 102.797 22.4531C100.705 22.4531 99.1582 23.9648 99.0703 25.9336ZM114.047 32.1914C114.029 27.9551 117.316 26.4434 121.113 26.2148C122.502 26.127 124.875 26.0391 125.684 26.0039V24.457C125.684 23.1211 124.699 22.3652 123.082 22.3828C121.518 22.3652 120.498 23.0684 120.27 24.3164H114.75C115.014 20.9414 117.861 18.1641 123.223 18.1641C127.934 18.1641 131.607 20.3965 131.625 24.5273V37.5H126.035V34.8281H125.895C124.857 36.7617 123.012 37.834 120.34 37.8516C116.684 37.834 114.029 35.9707 114.047 32.1914ZM119.672 31.9453C119.654 33.2285 120.691 33.9141 122.133 33.9141C124.154 33.9141 125.736 32.5957 125.719 30.7148V29.4844C124.998 29.502 122.994 29.6074 122.098 29.6953C120.604 29.8535 119.654 30.6797 119.672 31.9453ZM135.246 37.5V18.4102H140.871V21.8906H141.082C141.891 19.5703 143.877 18.1641 146.496 18.1641C149.133 18.1641 151.154 19.6055 151.664 21.8906H151.875C152.613 19.623 154.828 18.1641 157.641 18.1641C161.227 18.1641 163.723 20.5898 163.723 24.6328V37.5H157.781V25.9688C157.799 24.0176 156.674 22.9805 155.074 22.9805C153.369 22.9805 152.332 24.1934 152.332 26.0391V37.5H146.637V25.8984C146.637 24.1055 145.564 22.9805 143.965 22.9805C142.33 22.9805 141.17 24.2285 141.188 26.1797V37.5H135.246ZM172.477 18.4102L175.711 24.7734L179.016 18.4102H185.027L179.648 27.9375L185.203 37.5H179.262L175.711 31.1016L172.23 37.5H166.184L171.773 27.9375L166.465 18.4102H172.477ZM193.676 26.5664V37.5H187.734V18.4102H193.359V21.8906H193.57C194.432 19.5879 196.559 18.1641 199.371 18.1641C203.396 18.1641 205.998 21.0117 205.98 25.3359V37.5H200.074V26.4609C200.074 24.3164 198.914 23.0332 196.945 23.0156C194.977 23.0332 193.676 24.3516 193.676 26.5664Z" fill="#202128"/>
</svg>
